<?xml version="1.0" encoding="UTF-8" standalone="no"?><svg xmlns="http://www.w3.org/2000/svg" xmlns:xlink="http://www.w3.org/1999/xlink" clip-rule="evenodd" stroke-miterlimit="10" viewBox="0 0 1024 768"><desc>SVG generated by Keynote</desc><defs><pattern id="A0044EA9-3978-4A3E-AECA-8066D51851CF" patternUnits="userSpaceOnUse" width="635" height="635" viewBox="0 0 635 635"><image xlink:href="3604B5FD601E52BFAB8A266220293A75.png" width="635.00" height="635.00"></image></pattern><pattern id="DC7A02BD-5ABA-40D8-9072-BC365EC5C62E" patternUnits="userSpaceOnUse" width="635" height="635" viewBox="0 0 635 635"><image xlink:href="191B3A66BCDD4F3D68F90D26310EEBFC.png" width="635.00" height="635.00"></image></pattern><pattern id="D8883CFF-B062-4745-90B5-A0B71C3E29BC" patternUnits="userSpaceOnUse" width="635" height="635" viewBox="0 0 635 635"><image xlink:href="5D7C65CB56709117397F2C8BD51554E8.png" width="635.00" height="635.00"></image></pattern></defs><g transform="matrix(1.00, 0.00, -0.00, -1.00, 0.0, 768.0)"><g><clipPath id="clip0x7fe32fb2bcf0"><path d="M 0.0 768.0 L 1024.0 768.0 L 1024.0 0.0 L 0.0 0.0 Z M 0.0 768.0 "></path></clipPath><g clip-path="url(#clip0x7fe32fb2bcf0)"><image xlink:href="../../8532EDA3-03AF-4F95-ADCC-1003E38AE155/assets/7D0D479F0D8AC86C9E875656D9072873.jpeg" width="2048.00" height="1536.00" transform="matrix(0.50, 0.00, -0.00, -0.50, 0.0, 768.0)"></image></g></g><image xlink:href="7ABC1149931F0712694B6C8DD2305730.png" width="538.00" height="62.00" transform="matrix(1.00, 0.00, -0.00, -1.00, 67.0, 678.0)"></image><text xml:space="preserve" font-family="HelveticaNeue-Light,Helvetica Neue" font-size="72.0" fill="#FEFFFE" transform="matrix(1.00, 0.00, -0.00, -1.00, 66.0, 624.4)">E</text><text xml:space="preserve" font-family="HelveticaNeue-Light,Helvetica Neue" font-size="72.0" fill="#FEFFFE" transform="matrix(1.00, 0.00, -0.00, -1.00, 108.7, 624.4)">s</text><text xml:space="preserve" font-family="HelveticaNeue-Light,Helvetica Neue" font-size="72.0" fill="#FEFFFE" transform="matrix(1.00, 0.00, -0.00, -1.00, 143.3, 624.4)">c</text><text xml:space="preserve" font-family="HelveticaNeue-Light,Helvetica Neue" font-size="72.0" fill="#FEFFFE" transform="matrix(1.00, 0.00, -0.00, -1.00, 180.7, 624.4)">e</text><text xml:space="preserve" font-family="HelveticaNeue-Light,Helvetica Neue" font-size="72.0" fill="#FEFFFE" transform="matrix(1.00, 0.00, -0.00, -1.00, 218.1, 624.4)">n</text><text xml:space="preserve" font-family="HelveticaNeue-Light,Helvetica Neue" font-size="72.0" fill="#FEFFFE" transform="matrix(1.00, 0.00, -0.00, -1.00, 256.7, 624.4)">a</text><text xml:space="preserve" font-family="HelveticaNeue-Light,Helvetica Neue" font-size="72.0" fill="#FEFFFE" transform="matrix(1.00, 0.00, -0.00, -1.00, 294.1, 624.4)">r</text><text xml:space="preserve" font-family="HelveticaNeue-Light,Helvetica Neue" font-size="72.0" fill="#FEFFFE" transform="matrix(1.00, 0.00, -0.00, -1.00, 316.8, 624.4)">i</text><text xml:space="preserve" font-family="HelveticaNeue-Light,Helvetica Neue" font-size="72.0" fill="#FEFFFE" transform="matrix(1.00, 0.00, -0.00, -1.00, 330.1, 624.4)">o</text><text xml:space="preserve" font-family="HelveticaNeue-Light,Helvetica Neue" font-size="72.0" fill="#FEFFFE" transform="matrix(1.00, 0.00, -0.00, -1.00, 370.1, 624.4)"> </text><text xml:space="preserve" font-family="HelveticaNeue-Light,Helvetica Neue" font-size="72.0" fill="#FEFFFE" transform="matrix(1.00, 0.00, -0.00, -1.00, 390.1, 624.4)">c</text><text xml:space="preserve" font-family="HelveticaNeue-Light,Helvetica Neue" font-size="72.0" fill="#FEFFFE" transform="matrix(1.00, 0.00, -0.00, -1.00, 427.5, 624.4)">o</text><text xml:space="preserve" font-family="HelveticaNeue-Light,Helvetica Neue" font-size="72.0" fill="#FEFFFE" transform="matrix(1.00, 0.00, -0.00, -1.00, 467.5, 624.4)">m</text><text xml:space="preserve" font-family="HelveticaNeue-Light,Helvetica Neue" font-size="72.0" fill="#FEFFFE" transform="matrix(1.00, 0.00, -0.00, -1.00, 527.5, 624.4)">ú</text><text xml:space="preserve" font-family="HelveticaNeue-Light,Helvetica Neue" font-size="72.0" fill="#FEFFFE" transform="matrix(1.00, 0.00, -0.00, -1.00, 566.2, 624.4)">n</text><g><clipPath id="clip0x7fe32fa13b90"><path d="M 421.0 538.0 L 603.0 538.0 L 603.0 473.0 L 421.0 473.0 Z M 420.9 537.6 "></path></clipPath><g clip-path="url(#clip0x7fe32fa13b90)"><image xlink:href="C69E2B6ADEF2E7B5632AAABD22613C20.png" width="635.00" height="635.00" transform="matrix(0.50, 0.00, -0.00, -0.50, 421.0, 538.0)"></image></g></g><image xlink:href="65FDE506B4858B7766F4C94AF046F260.png" width="166.00" height="42.00" transform="matrix(1.00, 0.00, -0.00, -1.00, 428.0, 519.0)"></image><g><clipPath id="clip0x7fe32f8bfe80"><path d="M 410.3 466.0 L 613.7 466.0 L 613.7 538.2 L 410.3 538.2 Z M 410.3 466.0 "></path></clipPath><g clip-path="url(#clip0x7fe32f8bfe80)"><text xml:space="preserve" font-family="HelveticaNeue-Light,Helvetica Neue" font-size="36.0" fill="#FEFFFE" transform="matrix(1.00, 0.00, -0.00, -1.00, 432.6, 491.3)">A</text><text xml:space="preserve" font-family="HelveticaNeue-Light,Helvetica Neue" font-size="36.0" fill="#FEFFFE" transform="matrix(1.00, 0.00, -0.00, -1.00, 455.3, 491.3)">p</text><text xml:space="preserve" font-family="HelveticaNeue-Light,Helvetica Neue" font-size="36.0" fill="#FEFFFE" transform="matrix(1.00, 0.00, -0.00, -1.00, 476.0, 491.3)">l</text><text xml:space="preserve" font-family="HelveticaNeue-Light,Helvetica Neue" font-size="36.0" fill="#FEFFFE" transform="matrix(1.00, 0.00, -0.00, -1.00, 482.6, 491.3)">i</text><text xml:space="preserve" font-family="HelveticaNeue-Light,Helvetica Neue" font-size="36.0" fill="#FEFFFE" transform="matrix(1.00, 0.00, -0.00, -1.00, 489.3, 491.3)">c</text><text xml:space="preserve" font-family="HelveticaNeue-Light,Helvetica Neue" font-size="36.0" fill="#FEFFFE" transform="matrix(1.00, 0.00, -0.00, -1.00, 508.0, 491.3)">a</text><text xml:space="preserve" font-family="HelveticaNeue-Light,Helvetica Neue" font-size="36.0" fill="#FEFFFE" transform="matrix(1.00, 0.00, -0.00, -1.00, 526.7, 491.3)">c</text><text xml:space="preserve" font-family="HelveticaNeue-Light,Helvetica Neue" font-size="36.0" fill="#FEFFFE" transform="matrix(1.00, 0.00, -0.00, -1.00, 545.4, 491.3)">i</text><text xml:space="preserve" font-family="HelveticaNeue-Light,Helvetica Neue" font-size="36.0" fill="#FEFFFE" transform="matrix(1.00, 0.00, -0.00, -1.00, 552.0, 491.3)">ó</text><text xml:space="preserve" font-family="HelveticaNeue-Light,Helvetica Neue" font-size="36.0" fill="#FEFFFE" transform="matrix(1.00, 0.00, -0.00, -1.00, 572.0, 491.3)">n</text></g></g><g><clipPath id="clip0x7fe32f8ca820"><path d="M 616.0 538.0 L 799.0 538.0 L 799.0 473.0 L 616.0 473.0 Z M 616.5 537.6 "></path></clipPath><g clip-path="url(#clip0x7fe32f8ca820)"><image xlink:href="../../D3687D76-D266-4923-BC83-72EBA21C8DC4/assets/C69E2B6ADEF2E7B5632AAABD22613C20.png" width="635.00" height="635.00" transform="matrix(0.50, 0.00, -0.00, -0.50, 616.0, 538.0)"></image></g></g><image xlink:href="3BAA99EA39F3609383A3BB9DEB15C6C6.png" width="166.00" height="42.00" transform="matrix(1.00, 0.00, -0.00, -1.00, 623.0, 519.0)"></image><g><clipPath id="clip0x7fe32f7ed970"><path d="M 605.9 466.0 L 809.3 466.0 L 809.3 538.2 L 605.9 538.2 Z M 605.9 466.0 "></path></clipPath><g clip-path="url(#clip0x7fe32f7ed970)"><text xml:space="preserve" font-family="HelveticaNeue-Light,Helvetica Neue" font-size="36.0" fill="#FEFFFE" transform="matrix(1.00, 0.00, -0.00, -1.00, 628.2, 491.3)">A</text><text xml:space="preserve" font-family="HelveticaNeue-Light,Helvetica Neue" font-size="36.0" fill="#FEFFFE" transform="matrix(1.00, 0.00, -0.00, -1.00, 650.9, 491.3)">p</text><text xml:space="preserve" font-family="HelveticaNeue-Light,Helvetica Neue" font-size="36.0" fill="#FEFFFE" transform="matrix(1.00, 0.00, -0.00, -1.00, 671.5, 491.3)">l</text><text xml:space="preserve" font-family="HelveticaNeue-Light,Helvetica Neue" font-size="36.0" fill="#FEFFFE" transform="matrix(1.00, 0.00, -0.00, -1.00, 678.2, 491.3)">i</text><text xml:space="preserve" font-family="HelveticaNeue-Light,Helvetica Neue" font-size="36.0" fill="#FEFFFE" transform="matrix(1.00, 0.00, -0.00, -1.00, 684.9, 491.3)">c</text><text xml:space="preserve" font-family="HelveticaNeue-Light,Helvetica Neue" font-size="36.0" fill="#FEFFFE" transform="matrix(1.00, 0.00, -0.00, -1.00, 703.5, 491.3)">a</text><text xml:space="preserve" font-family="HelveticaNeue-Light,Helvetica Neue" font-size="36.0" fill="#FEFFFE" transform="matrix(1.00, 0.00, -0.00, -1.00, 722.2, 491.3)">c</text><text xml:space="preserve" font-family="HelveticaNeue-Light,Helvetica Neue" font-size="36.0" fill="#FEFFFE" transform="matrix(1.00, 0.00, -0.00, -1.00, 740.9, 491.3)">i</text><text xml:space="preserve" font-family="HelveticaNeue-Light,Helvetica Neue" font-size="36.0" fill="#FEFFFE" transform="matrix(1.00, 0.00, -0.00, -1.00, 747.6, 491.3)">ó</text><text xml:space="preserve" font-family="HelveticaNeue-Light,Helvetica Neue" font-size="36.0" fill="#FEFFFE" transform="matrix(1.00, 0.00, -0.00, -1.00, 767.6, 491.3)">n</text></g></g><g><clipPath id="clip0x7fe32f7f1840"><path d="M 225.0 538.0 L 408.0 538.0 L 408.0 473.0 L 225.0 473.0 Z M 225.4 537.6 "></path></clipPath><g clip-path="url(#clip0x7fe32f7f1840)"><image xlink:href="../../D3687D76-D266-4923-BC83-72EBA21C8DC4/assets/C69E2B6ADEF2E7B5632AAABD22613C20.png" width="635.00" height="635.00" transform="matrix(0.50, 0.00, -0.00, -0.50, 225.0, 538.0)"></image></g></g><image xlink:href="D12818273978C8DD4C53F690C6F59E33.png" width="166.00" height="42.00" transform="matrix(1.00, 0.00, -0.00, -1.00, 232.0, 519.0)"></image><g><clipPath id="clip0x7fe32f7f2070"><path d="M 214.7 466.0 L 418.1 466.0 L 418.1 538.2 L 214.7 538.2 Z M 214.7 466.0 "></path></clipPath><g clip-path="url(#clip0x7fe32f7f2070)"><text xml:space="preserve" font-family="HelveticaNeue-Light,Helvetica Neue" font-size="36.0" fill="#FEFFFE" transform="matrix(1.00, 0.00, -0.00, -1.00, 237.1, 491.3)">A</text><text xml:space="preserve" font-family="HelveticaNeue-Light,Helvetica Neue" font-size="36.0" fill="#FEFFFE" transform="matrix(1.00, 0.00, -0.00, -1.00, 259.8, 491.3)">p</text><text xml:space="preserve" font-family="HelveticaNeue-Light,Helvetica Neue" font-size="36.0" fill="#FEFFFE" transform="matrix(1.00, 0.00, -0.00, -1.00, 280.4, 491.3)">l</text><text xml:space="preserve" font-family="HelveticaNeue-Light,Helvetica Neue" font-size="36.0" fill="#FEFFFE" transform="matrix(1.00, 0.00, -0.00, -1.00, 287.1, 491.3)">i</text><text xml:space="preserve" font-family="HelveticaNeue-Light,Helvetica Neue" font-size="36.0" fill="#FEFFFE" transform="matrix(1.00, 0.00, -0.00, -1.00, 293.7, 491.3)">c</text><text xml:space="preserve" font-family="HelveticaNeue-Light,Helvetica Neue" font-size="36.0" fill="#FEFFFE" transform="matrix(1.00, 0.00, -0.00, -1.00, 312.4, 491.3)">a</text><text xml:space="preserve" font-family="HelveticaNeue-Light,Helvetica Neue" font-size="36.0" fill="#FEFFFE" transform="matrix(1.00, 0.00, -0.00, -1.00, 331.1, 491.3)">c</text><text xml:space="preserve" font-family="HelveticaNeue-Light,Helvetica Neue" font-size="36.0" fill="#FEFFFE" transform="matrix(1.00, 0.00, -0.00, -1.00, 349.8, 491.3)">i</text><text xml:space="preserve" font-family="HelveticaNeue-Light,Helvetica Neue" font-size="36.0" fill="#FEFFFE" transform="matrix(1.00, 0.00, -0.00, -1.00, 356.5, 491.3)">ó</text><text xml:space="preserve" font-family="HelveticaNeue-Light,Helvetica Neue" font-size="36.0" fill="#FEFFFE" transform="matrix(1.00, 0.00, -0.00, -1.00, 376.5, 491.3)">n</text></g></g><g><clipPath id="clip0x7fe32f7f7460"><path d="M 220.0 431.0 L 799.0 431.0 L 799.0 373.0 L 220.0 373.0 Z M 219.7 431.2 "></path></clipPath><g clip-path="url(#clip0x7fe32f7f7460)"><path d="M 220.0 373.0 L 799.0 373.0 L 799.0 431.0 L 220.0 431.0 Z M 220.0 373.0 " fill="url(#A0044EA9-3978-4A3E-AECA-8066D51851CF)"></path></g></g><image xlink:href="3F02A5E1FB24565CABEA76EF589A7718.png" width="179.00" height="35.00" transform="matrix(1.00, 0.00, -0.00, -1.00, 421.0, 415.0)"></image><g><clipPath id="clip0x7fe32f7f9bd0"><path d="M 209.1 362.7 L 809.9 362.7 L 809.9 434.9 L 209.1 434.9 Z M 209.1 362.7 "></path></clipPath><g clip-path="url(#clip0x7fe32f7f9bd0)"><text xml:space="preserve" font-family="HelveticaNeue-Light,Helvetica Neue" font-size="36.0" fill="#FEFFFE" transform="matrix(1.00, 0.00, -0.00, -1.00, 422.5, 388.0)">P</text><text xml:space="preserve" font-family="HelveticaNeue-Light,Helvetica Neue" font-size="36.0" fill="#FEFFFE" transform="matrix(1.00, 0.00, -0.00, -1.00, 445.2, 388.0)">u</text><text xml:space="preserve" font-family="HelveticaNeue-Light,Helvetica Neue" font-size="36.0" fill="#FEFFFE" transform="matrix(1.00, 0.00, -0.00, -1.00, 464.5, 388.0)">l</text><text xml:space="preserve" font-family="HelveticaNeue-Light,Helvetica Neue" font-size="36.0" fill="#FEFFFE" transform="matrix(1.00, 0.00, -0.00, -1.00, 471.2, 388.0)">s</text><text xml:space="preserve" font-family="HelveticaNeue-Light,Helvetica Neue" font-size="36.0" fill="#FEFFFE" transform="matrix(1.00, 0.00, -0.00, -1.00, 488.5, 388.0)">e</text><text xml:space="preserve" font-family="HelveticaNeue-Light,Helvetica Neue" font-size="36.0" fill="#FEFFFE" transform="matrix(1.00, 0.00, -0.00, -1.00, 507.2, 388.0)">A</text><text xml:space="preserve" font-family="HelveticaNeue-Light,Helvetica Neue" font-size="36.0" fill="#FEFFFE" transform="matrix(1.00, 0.00, -0.00, -1.00, 529.9, 388.0)">u</text><text xml:space="preserve" font-family="HelveticaNeue-Light,Helvetica Neue" font-size="36.0" fill="#FEFFFE" transform="matrix(1.00, 0.00, -0.00, -1.00, 549.2, 388.0)">d</text><text xml:space="preserve" font-family="HelveticaNeue-Light,Helvetica Neue" font-size="36.0" fill="#FEFFFE" transform="matrix(1.00, 0.00, -0.00, -1.00, 569.8, 388.0)">i</text><text xml:space="preserve" font-family="HelveticaNeue-Light,Helvetica Neue" font-size="36.0" fill="#FEFFFE" transform="matrix(1.00, 0.00, -0.00, -1.00, 576.5, 388.0)">o</text></g></g><g><clipPath id="clip0x7fe32fc01df0"><path d="M 219.0 330.0 L 799.0 330.0 L 799.0 230.0 L 219.0 230.0 Z M 219.1 330.4 "></path></clipPath><g clip-path="url(#clip0x7fe32fc01df0)"><path d="M 219.0 230.0 L 799.0 230.0 L 799.0 330.0 L 219.0 330.0 Z M 219.0 230.0 " fill="url(#DC7A02BD-5ABA-40D8-9072-BC365EC5C62E)"></path></g></g><image xlink:href="0F070A04A679E0DC11413D1424379AC1.png" width="97.00" height="36.00" transform="matrix(1.00, 0.00, -0.00, -1.00, 460.0, 294.0)"></image><g><clipPath id="clip0x7fe32fc04350"><path d="M 208.5 230.4 L 809.3 230.4 L 809.3 330.4 L 208.5 330.4 Z M 208.5 230.4 "></path></clipPath><g clip-path="url(#clip0x7fe32fc04350)"><text xml:space="preserve" font-family="HelveticaNeue-Light,Helvetica Neue" font-size="36.0" fill="#FEFFFE" transform="matrix(1.00, 0.00, -0.00, -1.00, 465.2, 266.1)">A</text><text xml:space="preserve" font-family="HelveticaNeue-Light,Helvetica Neue" font-size="36.0" fill="#FEFFFE" transform="matrix(1.00, 0.00, -0.00, -1.00, 487.9, 266.1)">L</text><text xml:space="preserve" font-family="HelveticaNeue-Light,Helvetica Neue" font-size="36.0" fill="#FEFFFE" transform="matrix(1.00, 0.00, -0.00, -1.00, 507.2, 266.1)">S</text><text xml:space="preserve" font-family="HelveticaNeue-Light,Helvetica Neue" font-size="36.0" fill="#FEFFFE" transform="matrix(1.00, 0.00, -0.00, -1.00, 529.9, 266.1)">A</text></g></g><g><clipPath id="clip0x7fe32fc06310"><path d="M 222.0 188.0 L 802.0 188.0 L 802.0 88.0 L 222.0 88.0 Z M 222.2 188.3 "></path></clipPath><g clip-path="url(#clip0x7fe32fc06310)"><path d="M 222.0 88.0 L 802.0 88.0 L 802.0 188.0 L 222.0 188.0 Z M 222.0 88.0 " fill="url(#D8883CFF-B062-4745-90B5-A0B71C3E29BC)"></path></g></g><image xlink:href="186B35B2BCB5B1CAA6F320E650233F66.png" width="156.00" height="35.00" transform="matrix(1.00, 0.00, -0.00, -1.00, 435.0, 151.0)"></image><g><clipPath id="clip0x7fe32fa19a20"><path d="M 211.6 88.3 L 812.4 88.3 L 812.4 188.3 L 211.6 188.3 Z M 211.6 88.3 "></path></clipPath><g clip-path="url(#clip0x7fe32fa19a20)"><text xml:space="preserve" font-family="HelveticaNeue-Light,Helvetica Neue" font-size="36.0" fill="#FEFFFE" transform="matrix(1.00, 0.00, -0.00, -1.00, 436.9, 124.0)">H</text><text xml:space="preserve" font-family="HelveticaNeue-Light,Helvetica Neue" font-size="36.0" fill="#FEFFFE" transform="matrix(1.00, 0.00, -0.00, -1.00, 462.3, 124.0)">a</text><text xml:space="preserve" font-family="HelveticaNeue-Light,Helvetica Neue" font-size="36.0" fill="#FEFFFE" transform="matrix(1.00, 0.00, -0.00, -1.00, 481.0, 124.0)">r</text><text xml:space="preserve" font-family="HelveticaNeue-Light,Helvetica Neue" font-size="36.0" fill="#FEFFFE" transform="matrix(1.00, 0.00, -0.00, -1.00, 491.7, 124.0)">d</text><text xml:space="preserve" font-family="HelveticaNeue-Light,Helvetica Neue" font-size="36.0" fill="#FEFFFE" transform="matrix(1.00, 0.00, -0.00, -1.00, 512.3, 124.0)">w</text><text xml:space="preserve" font-family="HelveticaNeue-Light,Helvetica Neue" font-size="36.0" fill="#FEFFFE" transform="matrix(1.00, 0.00, -0.00, -1.00, 539.0, 124.0)">a</text><text xml:space="preserve" font-family="HelveticaNeue-Light,Helvetica Neue" font-size="36.0" fill="#FEFFFE" transform="matrix(1.00, 0.00, -0.00, -1.00, 557.7, 124.0)">r</text><text xml:space="preserve" font-family="HelveticaNeue-Light,Helvetica Neue" font-size="36.0" fill="#FEFFFE" transform="matrix(1.00, 0.00, -0.00, -1.00, 568.4, 124.0)">e</text></g></g></g></svg>