<?xml version="1.0" encoding="UTF-8" standalone="no"?><svg xmlns="http://www.w3.org/2000/svg" xmlns:xlink="http://www.w3.org/1999/xlink" clip-rule="evenodd" stroke-miterlimit="10" viewBox="0 0 1024 768"><desc>SVG generated by Keynote</desc><defs></defs><g transform="matrix(1.00, 0.00, -0.00, -1.00, 0.0, 768.0)"><g><clipPath id="clip0x7fe32f4a0ad0"><path d="M 0.0 768.0 L 1024.0 768.0 L 1024.0 0.0 L 0.0 0.0 Z M 0.0 768.0 "></path></clipPath><g clip-path="url(#clip0x7fe32f4a0ad0)"><image xlink:href="7D0D479F0D8AC86C9E875656D9072873.jpeg" width="2048.00" height="1536.00" transform="matrix(0.50, 0.00, -0.00, -0.50, 0.0, 768.0)"></image></g></g><image xlink:href="3C883AE5FAA7220EF13959CBDFDCF642.png" width="104.00" height="40.00" transform="matrix(1.00, 0.00, -0.00, -1.00, 459.0, 400.0)"></image><text xml:space="preserve" font-family="HelveticaNeue-Light,Helvetica Neue" font-size="42.0" fill="#FEFFFE" transform="matrix(1.00, 0.00, -0.00, -1.00, 463.8, 368.2)">T</text><text xml:space="preserve" font-family="HelveticaNeue-Light,Helvetica Neue" font-size="42.0" fill="#FEFFFE" transform="matrix(1.00, 0.00, -0.00, -1.00, 482.5, 368.2)">e</text><text xml:space="preserve" font-family="HelveticaNeue-Light,Helvetica Neue" font-size="42.0" fill="#FEFFFE" transform="matrix(1.00, 0.00, -0.00, -1.00, 504.3, 368.2)">x</text><text xml:space="preserve" font-family="HelveticaNeue-Light,Helvetica Neue" font-size="42.0" fill="#FEFFFE" transform="matrix(1.00, 0.00, -0.00, -1.00, 524.5, 368.2)">t</text><text xml:space="preserve" font-family="HelveticaNeue-Light,Helvetica Neue" font-size="42.0" fill="#FEFFFE" transform="matrix(1.00, 0.00, -0.00, -1.00, 536.9, 368.2)">o</text><g><clipPath id="clip0x7fe32f34b0e0"><path d="M 65.0 696.0 L 958.0 696.0 L 958.0 244.0 L 65.0 244.0 Z M 65.0 696.0 "></path></clipPath><g clip-path="url(#clip0x7fe32f34b0e0)"><image xlink:href="37549B884A35DFA1B7E3B0310FCEEC19.jpeg" width="1920.00" height="1439.00" transform="matrix(0.47, 0.00, -0.00, -0.47, 61.0, 717.0)"></image></g></g><image xlink:href="463277E5D5E4679DB154644AE841B23A.png" width="923.00" height="484.00" transform="matrix(1.00, 0.00, -0.00, 1.00, 50.0, 227.0)"></image><image xlink:href="7C50ED1D63A19466D82F3E7A460F9146.png" width="896.00" height="45.00" transform="matrix(1.00, 0.00, -0.00, -1.00, 65.0, 179.0)"></image><text xml:space="preserve" font-family="HelveticaNeue-Light,Helvetica Neue" font-size="40.3" fill="#FEFFFE" transform="matrix(1.00, 0.00, -0.00, -1.00, 66.0, 148.8)">I</text><text xml:space="preserve" font-family="HelveticaNeue-Light,Helvetica Neue" font-size="40.3" fill="#FEFFFE" transform="matrix(1.00, 0.00, -0.00, -1.00, 75.0, 148.8)">n</text><text xml:space="preserve" font-family="HelveticaNeue-Light,Helvetica Neue" font-size="40.3" fill="#FEFFFE" transform="matrix(1.00, 0.00, -0.00, -1.00, 96.6, 148.8)">t</text><text xml:space="preserve" font-family="HelveticaNeue-Light,Helvetica Neue" font-size="40.3" fill="#FEFFFE" transform="matrix(1.00, 0.00, -0.00, -1.00, 108.5, 148.8)">e</text><text xml:space="preserve" font-family="HelveticaNeue-Light,Helvetica Neue" font-size="40.3" fill="#FEFFFE" transform="matrix(1.00, 0.00, -0.00, -1.00, 129.5, 148.8)">r</text><text xml:space="preserve" font-family="HelveticaNeue-Light,Helvetica Neue" font-size="40.3" fill="#FEFFFE" transform="matrix(1.00, 0.00, -0.00, -1.00, 142.2, 148.8)">f</text><text xml:space="preserve" font-family="HelveticaNeue-Light,Helvetica Neue" font-size="40.3" fill="#FEFFFE" transform="matrix(1.00, 0.00, -0.00, -1.00, 152.6, 148.8)">a</text><text xml:space="preserve" font-family="HelveticaNeue-Light,Helvetica Neue" font-size="40.3" fill="#FEFFFE" transform="matrix(1.00, 0.00, -0.00, -1.00, 173.5, 148.8)">z</text><text xml:space="preserve" font-family="HelveticaNeue-Light,Helvetica Neue" font-size="40.3" fill="#FEFFFE" transform="matrix(1.00, 0.00, -0.00, -1.00, 192.2, 148.8)"> </text><text xml:space="preserve" font-family="HelveticaNeue-Light,Helvetica Neue" font-size="40.3" fill="#FEFFFE" transform="matrix(1.00, 0.00, -0.00, -1.00, 203.4, 148.8)">v</text><text xml:space="preserve" font-family="HelveticaNeue-Light,Helvetica Neue" font-size="40.3" fill="#FEFFFE" transform="matrix(1.00, 0.00, -0.00, -1.00, 222.1, 148.8)">i</text><text xml:space="preserve" font-family="HelveticaNeue-Light,Helvetica Neue" font-size="40.3" fill="#FEFFFE" transform="matrix(1.00, 0.00, -0.00, -1.00, 229.5, 148.8)">r</text><text xml:space="preserve" font-family="HelveticaNeue-Light,Helvetica Neue" font-size="40.3" fill="#FEFFFE" transform="matrix(1.00, 0.00, -0.00, -1.00, 242.2, 148.8)">t</text><text xml:space="preserve" font-family="HelveticaNeue-Light,Helvetica Neue" font-size="40.3" fill="#FEFFFE" transform="matrix(1.00, 0.00, -0.00, -1.00, 254.2, 148.8)">u</text><text xml:space="preserve" font-family="HelveticaNeue-Light,Helvetica Neue" font-size="40.3" fill="#FEFFFE" transform="matrix(1.00, 0.00, -0.00, -1.00, 275.8, 148.8)">a</text><text xml:space="preserve" font-family="HelveticaNeue-Light,Helvetica Neue" font-size="40.3" fill="#FEFFFE" transform="matrix(1.00, 0.00, -0.00, -1.00, 296.8, 148.8)">l</text><text xml:space="preserve" font-family="HelveticaNeue-Light,Helvetica Neue" font-size="40.3" fill="#FEFFFE" transform="matrix(1.00, 0.00, -0.00, -1.00, 304.2, 148.8)"> </text><text xml:space="preserve" font-family="HelveticaNeue-Light,Helvetica Neue" font-size="40.3" fill="#FEFFFE" transform="matrix(1.00, 0.00, -0.00, -1.00, 315.4, 148.8)">p</text><text xml:space="preserve" font-family="HelveticaNeue-Light,Helvetica Neue" font-size="40.3" fill="#FEFFFE" transform="matrix(1.00, 0.00, -0.00, -1.00, 338.6, 148.8)">a</text><text xml:space="preserve" font-family="HelveticaNeue-Light,Helvetica Neue" font-size="40.3" fill="#FEFFFE" transform="matrix(1.00, 0.00, -0.00, -1.00, 359.5, 148.8)">r</text><text xml:space="preserve" font-family="HelveticaNeue-Light,Helvetica Neue" font-size="40.3" fill="#FEFFFE" transform="matrix(1.00, 0.00, -0.00, -1.00, 372.2, 148.8)">a</text><text xml:space="preserve" font-family="HelveticaNeue-Light,Helvetica Neue" font-size="40.3" fill="#FEFFFE" transform="matrix(1.00, 0.00, -0.00, -1.00, 393.1, 148.8)"> </text><text xml:space="preserve" font-family="HelveticaNeue-Light,Helvetica Neue" font-size="40.3" fill="#FEFFFE" transform="matrix(1.00, 0.00, -0.00, -1.00, 404.3, 148.8)">m</text><text xml:space="preserve" font-family="HelveticaNeue-Light,Helvetica Neue" font-size="40.3" fill="#FEFFFE" transform="matrix(1.00, 0.00, -0.00, -1.00, 437.9, 148.8)">e</text><text xml:space="preserve" font-family="HelveticaNeue-Light,Helvetica Neue" font-size="40.3" fill="#FEFFFE" transform="matrix(1.00, 0.00, -0.00, -1.00, 458.8, 148.8)">j</text><text xml:space="preserve" font-family="HelveticaNeue-Light,Helvetica Neue" font-size="40.3" fill="#FEFFFE" transform="matrix(1.00, 0.00, -0.00, -1.00, 466.3, 148.8)">o</text><text xml:space="preserve" font-family="HelveticaNeue-Light,Helvetica Neue" font-size="40.3" fill="#FEFFFE" transform="matrix(1.00, 0.00, -0.00, -1.00, 488.7, 148.8)">r</text><text xml:space="preserve" font-family="HelveticaNeue-Light,Helvetica Neue" font-size="40.3" fill="#FEFFFE" transform="matrix(1.00, 0.00, -0.00, -1.00, 501.4, 148.8)">a</text><text xml:space="preserve" font-family="HelveticaNeue-Light,Helvetica Neue" font-size="40.3" fill="#FEFFFE" transform="matrix(1.00, 0.00, -0.00, -1.00, 522.3, 148.8)">m</text><text xml:space="preserve" font-family="HelveticaNeue-Light,Helvetica Neue" font-size="40.3" fill="#FEFFFE" transform="matrix(1.00, 0.00, -0.00, -1.00, 555.9, 148.8)">i</text><text xml:space="preserve" font-family="HelveticaNeue-Light,Helvetica Neue" font-size="40.3" fill="#FEFFFE" transform="matrix(1.00, 0.00, -0.00, -1.00, 563.4, 148.8)">e</text><text xml:space="preserve" font-family="HelveticaNeue-Light,Helvetica Neue" font-size="40.3" fill="#FEFFFE" transform="matrix(1.00, 0.00, -0.00, -1.00, 584.3, 148.8)">n</text><text xml:space="preserve" font-family="HelveticaNeue-Light,Helvetica Neue" font-size="40.3" fill="#FEFFFE" transform="matrix(1.00, 0.00, -0.00, -1.00, 606.0, 148.8)">t</text><text xml:space="preserve" font-family="HelveticaNeue-Light,Helvetica Neue" font-size="40.3" fill="#FEFFFE" transform="matrix(1.00, 0.00, -0.00, -1.00, 617.9, 148.8)">o</text><text xml:space="preserve" font-family="HelveticaNeue-Light,Helvetica Neue" font-size="40.3" fill="#FEFFFE" transform="matrix(1.00, 0.00, -0.00, -1.00, 640.3, 148.8)"> </text><text xml:space="preserve" font-family="HelveticaNeue-Light,Helvetica Neue" font-size="40.3" fill="#FEFFFE" transform="matrix(1.00, 0.00, -0.00, -1.00, 651.5, 148.8)">d</text><text xml:space="preserve" font-family="HelveticaNeue-Light,Helvetica Neue" font-size="40.3" fill="#FEFFFE" transform="matrix(1.00, 0.00, -0.00, -1.00, 674.7, 148.8)">e</text><text xml:space="preserve" font-family="HelveticaNeue-Light,Helvetica Neue" font-size="40.3" fill="#FEFFFE" transform="matrix(1.00, 0.00, -0.00, -1.00, 695.6, 148.8)"> </text><text xml:space="preserve" font-family="HelveticaNeue-Light,Helvetica Neue" font-size="40.3" fill="#FEFFFE" transform="matrix(1.00, 0.00, -0.00, -1.00, 706.8, 148.8)">c</text><text xml:space="preserve" font-family="HelveticaNeue-Light,Helvetica Neue" font-size="40.3" fill="#FEFFFE" transform="matrix(1.00, 0.00, -0.00, -1.00, 727.7, 148.8)">a</text><text xml:space="preserve" font-family="HelveticaNeue-Light,Helvetica Neue" font-size="40.3" fill="#FEFFFE" transform="matrix(1.00, 0.00, -0.00, -1.00, 748.7, 148.8)">l</text><text xml:space="preserve" font-family="HelveticaNeue-Light,Helvetica Neue" font-size="40.3" fill="#FEFFFE" transform="matrix(1.00, 0.00, -0.00, -1.00, 756.1, 148.8)">i</text><text xml:space="preserve" font-family="HelveticaNeue-Light,Helvetica Neue" font-size="40.3" fill="#FEFFFE" transform="matrix(1.00, 0.00, -0.00, -1.00, 763.6, 148.8)">d</text><text xml:space="preserve" font-family="HelveticaNeue-Light,Helvetica Neue" font-size="40.3" fill="#FEFFFE" transform="matrix(1.00, 0.00, -0.00, -1.00, 786.7, 148.8)">a</text><text xml:space="preserve" font-family="HelveticaNeue-Light,Helvetica Neue" font-size="40.3" fill="#FEFFFE" transform="matrix(1.00, 0.00, -0.00, -1.00, 807.6, 148.8)">d</text><text xml:space="preserve" font-family="HelveticaNeue-Light,Helvetica Neue" font-size="40.3" fill="#FEFFFE" transform="matrix(1.00, 0.00, -0.00, -1.00, 830.8, 148.8)"> </text><text xml:space="preserve" font-family="HelveticaNeue-Light,Helvetica Neue" font-size="40.3" fill="#FEFFFE" transform="matrix(1.00, 0.00, -0.00, -1.00, 842.0, 148.8)">d</text><text xml:space="preserve" font-family="HelveticaNeue-Light,Helvetica Neue" font-size="40.3" fill="#FEFFFE" transform="matrix(1.00, 0.00, -0.00, -1.00, 865.1, 148.8)">e</text><text xml:space="preserve" font-family="HelveticaNeue-Light,Helvetica Neue" font-size="40.3" fill="#FEFFFE" transform="matrix(1.00, 0.00, -0.00, -1.00, 886.1, 148.8)"> </text><text xml:space="preserve" font-family="HelveticaNeue-Light,Helvetica Neue" font-size="40.3" fill="#FEFFFE" transform="matrix(1.00, 0.00, -0.00, -1.00, 897.3, 148.8)">v</text><text xml:space="preserve" font-family="HelveticaNeue-Light,Helvetica Neue" font-size="40.3" fill="#FEFFFE" transform="matrix(1.00, 0.00, -0.00, -1.00, 915.9, 148.8)">o</text><text xml:space="preserve" font-family="HelveticaNeue-Light,Helvetica Neue" font-size="40.3" fill="#FEFFFE" transform="matrix(1.00, 0.00, -0.00, -1.00, 938.4, 148.8)">z</text><image xlink:href="F473CAF28C242372F773299B7D9DF40D.png" width="669.00" height="40.00" transform="matrix(1.00, 0.00, -0.00, -1.00, 64.0, 124.0)"></image><text xml:space="preserve" font-family="HelveticaNeue-Light,Helvetica Neue" font-size="42.0" fill="#73BFFF" transform="matrix(1.00, 0.00, -0.00, -1.00, 66.0, 92.2)">M</text><text xml:space="preserve" font-family="HelveticaNeue-Light,Helvetica Neue" font-size="42.0" fill="#73BFFF" transform="matrix(1.00, 0.00, -0.00, -1.00, 100.5, 92.2)">.</text><text xml:space="preserve" font-family="HelveticaNeue-Light,Helvetica Neue" font-size="42.0" fill="#73BFFF" transform="matrix(1.00, 0.00, -0.00, -1.00, 112.2, 92.2)"> </text><text xml:space="preserve" font-family="HelveticaNeue-Light,Helvetica Neue" font-size="42.0" fill="#73BFFF" transform="matrix(1.00, 0.00, -0.00, -1.00, 123.8, 92.2)">B</text><text xml:space="preserve" font-family="HelveticaNeue-Light,Helvetica Neue" font-size="42.0" fill="#73BFFF" transform="matrix(1.00, 0.00, -0.00, -1.00, 151.8, 92.2)">e</text><text xml:space="preserve" font-family="HelveticaNeue-Light,Helvetica Neue" font-size="42.0" fill="#73BFFF" transform="matrix(1.00, 0.00, -0.00, -1.00, 173.6, 92.2)">n</text><text xml:space="preserve" font-family="HelveticaNeue-Light,Helvetica Neue" font-size="42.0" fill="#73BFFF" transform="matrix(1.00, 0.00, -0.00, -1.00, 196.2, 92.2)">z</text><text xml:space="preserve" font-family="HelveticaNeue-Light,Helvetica Neue" font-size="42.0" fill="#73BFFF" transform="matrix(1.00, 0.00, -0.00, -1.00, 215.6, 92.2)">i</text><text xml:space="preserve" font-family="HelveticaNeue-Light,Helvetica Neue" font-size="42.0" fill="#73BFFF" transform="matrix(1.00, 0.00, -0.00, -1.00, 223.4, 92.2)"> </text><text xml:space="preserve" font-family="HelveticaNeue-Light,Helvetica Neue" font-size="42.0" fill="#73BFFF" transform="matrix(1.00, 0.00, -0.00, -1.00, 235.1, 92.2)">-</text><text xml:space="preserve" font-family="HelveticaNeue-Light,Helvetica Neue" font-size="42.0" fill="#73BFFF" transform="matrix(1.00, 0.00, -0.00, -1.00, 250.6, 92.2)"> </text><text xml:space="preserve" font-family="HelveticaNeue-Light,Helvetica Neue" font-size="42.0" fill="#73BFFF" transform="matrix(1.00, 0.00, -0.00, -1.00, 262.3, 92.2)">A</text><text xml:space="preserve" font-family="HelveticaNeue-Light,Helvetica Neue" font-size="42.0" fill="#73BFFF" transform="matrix(1.00, 0.00, -0.00, -1.00, 288.8, 92.2)">.</text><text xml:space="preserve" font-family="HelveticaNeue-Light,Helvetica Neue" font-size="42.0" fill="#73BFFF" transform="matrix(1.00, 0.00, -0.00, -1.00, 300.4, 92.2)"> </text><text xml:space="preserve" font-family="HelveticaNeue-Light,Helvetica Neue" font-size="42.0" fill="#73BFFF" transform="matrix(1.00, 0.00, -0.00, -1.00, 312.1, 92.2)">U</text><text xml:space="preserve" font-family="HelveticaNeue-Light,Helvetica Neue" font-size="42.0" fill="#73BFFF" transform="matrix(1.00, 0.00, -0.00, -1.00, 340.9, 92.2)">l</text><text xml:space="preserve" font-family="HelveticaNeue-Light,Helvetica Neue" font-size="42.0" fill="#73BFFF" transform="matrix(1.00, 0.00, -0.00, -1.00, 348.7, 92.2)">l</text><text xml:space="preserve" font-family="HelveticaNeue-Light,Helvetica Neue" font-size="42.0" fill="#73BFFF" transform="matrix(1.00, 0.00, -0.00, -1.00, 356.4, 92.2)">o</text><text xml:space="preserve" font-family="HelveticaNeue-Light,Helvetica Neue" font-size="42.0" fill="#73BFFF" transform="matrix(1.00, 0.00, -0.00, -1.00, 379.8, 92.2)">a</text><text xml:space="preserve" font-family="HelveticaNeue-Light,Helvetica Neue" font-size="42.0" fill="#73BFFF" transform="matrix(1.00, 0.00, -0.00, -1.00, 401.6, 92.2)"> </text><text xml:space="preserve" font-family="HelveticaNeue-Light,Helvetica Neue" font-size="42.0" fill="#73BFFF" transform="matrix(1.00, 0.00, -0.00, -1.00, 413.3, 92.2)">/</text><text xml:space="preserve" font-family="HelveticaNeue-Light,Helvetica Neue" font-size="42.0" fill="#73BFFF" transform="matrix(1.00, 0.00, -0.00, -1.00, 427.2, 92.2)"> </text><text xml:space="preserve" font-family="HelveticaNeue-Light,Helvetica Neue" font-size="42.0" fill="#73BFFF" transform="matrix(1.00, 0.00, -0.00, -1.00, 438.9, 92.2)">E</text><text xml:space="preserve" font-family="HelveticaNeue-Light,Helvetica Neue" font-size="42.0" fill="#73BFFF" transform="matrix(1.00, 0.00, -0.00, -1.00, 463.8, 92.2)">L</text><text xml:space="preserve" font-family="HelveticaNeue-Light,Helvetica Neue" font-size="42.0" fill="#73BFFF" transform="matrix(1.00, 0.00, -0.00, -1.00, 486.4, 92.2)">O</text><text xml:space="preserve" font-family="HelveticaNeue-Light,Helvetica Neue" font-size="42.0" fill="#73BFFF" transform="matrix(1.00, 0.00, -0.00, -1.00, 517.5, 92.2)"> </text><text xml:space="preserve" font-family="HelveticaNeue-Light,Helvetica Neue" font-size="42.0" fill="#73BFFF" transform="matrix(1.00, 0.00, -0.00, -1.00, 529.2, 92.2)">3</text><text xml:space="preserve" font-family="HelveticaNeue-Light,Helvetica Neue" font-size="42.0" fill="#73BFFF" transform="matrix(1.00, 0.00, -0.00, -1.00, 552.5, 92.2)">3</text><text xml:space="preserve" font-family="HelveticaNeue-Light,Helvetica Neue" font-size="42.0" fill="#73BFFF" transform="matrix(1.00, 0.00, -0.00, -1.00, 575.9, 92.2)">0</text><text xml:space="preserve" font-family="HelveticaNeue-Light,Helvetica Neue" font-size="42.0" fill="#73BFFF" transform="matrix(1.00, 0.00, -0.00, -1.00, 599.2, 92.2)"> </text><text xml:space="preserve" font-family="HelveticaNeue-Light,Helvetica Neue" font-size="42.0" fill="#73BFFF" transform="matrix(1.00, 0.00, -0.00, -1.00, 610.9, 92.2)">/</text><text xml:space="preserve" font-family="HelveticaNeue-Light,Helvetica Neue" font-size="42.0" fill="#73BFFF" transform="matrix(1.00, 0.00, -0.00, -1.00, 624.9, 92.2)"> </text><text xml:space="preserve" font-family="HelveticaNeue-Light,Helvetica Neue" font-size="42.0" fill="#73BFFF" transform="matrix(1.00, 0.00, -0.00, -1.00, 636.6, 92.2)">2</text><text xml:space="preserve" font-family="HelveticaNeue-Light,Helvetica Neue" font-size="42.0" fill="#73BFFF" transform="matrix(1.00, 0.00, -0.00, -1.00, 659.9, 92.2)">0</text><text xml:space="preserve" font-family="HelveticaNeue-Light,Helvetica Neue" font-size="42.0" fill="#73BFFF" transform="matrix(1.00, 0.00, -0.00, -1.00, 683.3, 92.2)">1</text><text xml:space="preserve" font-family="HelveticaNeue-Light,Helvetica Neue" font-size="42.0" fill="#73BFFF" transform="matrix(1.00, 0.00, -0.00, -1.00, 706.6, 92.2)">4</text></g></svg>