<?xml version="1.0" encoding="UTF-8" standalone="no"?><svg xmlns="http://www.w3.org/2000/svg" xmlns:xlink="http://www.w3.org/1999/xlink" clip-rule="evenodd" stroke-miterlimit="10" viewBox="0 0 185 67"><desc>SVG generated by Keynote</desc><defs></defs><g transform="matrix(1.00, 0.00, -0.00, -1.00, 0.0, 67.0)"><g><clipPath id="clip0x7fe32f8dbce0"><path d="M 1.0 65.0 L 183.0 65.0 L 183.0 1.0 L 1.0 1.0 Z M 1.0 65.4 "></path></clipPath><g clip-path="url(#clip0x7fe32f8dbce0)"><image xlink:href="../../D3687D76-D266-4923-BC83-72EBA21C8DC4/assets/C69E2B6ADEF2E7B5632AAABD22613C20.png" width="635.00" height="635.00" transform="matrix(0.50, 0.00, -0.00, -0.50, 1.0, 65.0)"></image></g></g><image xlink:href="48BFCC38D93B05E2F8120956C4D0B428.png" width="166.00" height="42.00" transform="matrix(1.00, 0.00, -0.00, -1.00, 8.0, 47.0)"></image><g><clipPath id="clip0x7fe32f8e1290"><path d="M -9.6 -6.2 L 193.8 -6.2 L 193.8 66.0 L -9.6 66.0 Z M -9.6 -6.2 "></path></clipPath><g clip-path="url(#clip0x7fe32f8e1290)"><text xml:space="preserve" font-family="HelveticaNeue-Light,Helvetica Neue" font-size="36.0" fill="#FEFFFE" transform="matrix(1.00, 0.00, -0.00, -1.00, 12.7, 19.1)">A</text><text xml:space="preserve" font-family="HelveticaNeue-Light,Helvetica Neue" font-size="36.0" fill="#FEFFFE" transform="matrix(1.00, 0.00, -0.00, -1.00, 35.4, 19.1)">p</text><text xml:space="preserve" font-family="HelveticaNeue-Light,Helvetica Neue" font-size="36.0" fill="#FEFFFE" transform="matrix(1.00, 0.00, -0.00, -1.00, 56.1, 19.1)">l</text><text xml:space="preserve" font-family="HelveticaNeue-Light,Helvetica Neue" font-size="36.0" fill="#FEFFFE" transform="matrix(1.00, 0.00, -0.00, -1.00, 62.7, 19.1)">i</text><text xml:space="preserve" font-family="HelveticaNeue-Light,Helvetica Neue" font-size="36.0" fill="#FEFFFE" transform="matrix(1.00, 0.00, -0.00, -1.00, 69.4, 19.1)">c</text><text xml:space="preserve" font-family="HelveticaNeue-Light,Helvetica Neue" font-size="36.0" fill="#FEFFFE" transform="matrix(1.00, 0.00, -0.00, -1.00, 88.1, 19.1)">a</text><text xml:space="preserve" font-family="HelveticaNeue-Light,Helvetica Neue" font-size="36.0" fill="#FEFFFE" transform="matrix(1.00, 0.00, -0.00, -1.00, 106.8, 19.1)">c</text><text xml:space="preserve" font-family="HelveticaNeue-Light,Helvetica Neue" font-size="36.0" fill="#FEFFFE" transform="matrix(1.00, 0.00, -0.00, -1.00, 125.5, 19.1)">i</text><text xml:space="preserve" font-family="HelveticaNeue-Light,Helvetica Neue" font-size="36.0" fill="#FEFFFE" transform="matrix(1.00, 0.00, -0.00, -1.00, 132.1, 19.1)">รณ</text><text xml:space="preserve" font-family="HelveticaNeue-Light,Helvetica Neue" font-size="36.0" fill="#FEFFFE" transform="matrix(1.00, 0.00, -0.00, -1.00, 152.1, 19.1)">n</text></g></g></g></svg>