<?xml version="1.0" encoding="UTF-8" standalone="no"?><svg xmlns="http://www.w3.org/2000/svg" xmlns:xlink="http://www.w3.org/1999/xlink" clip-rule="evenodd" stroke-miterlimit="10" viewBox="0 0 185 67"><desc>SVG generated by Keynote</desc><defs></defs><g transform="matrix(1.00, 0.00, -0.00, -1.00, 0.0, 67.0)"><g><clipPath id="clip0x7fe32fb6cca0"><path d="M 1.0 66.0 L 184.0 66.0 L 184.0 1.0 L 1.0 1.0 Z M 1.4 65.6 "></path></clipPath><g clip-path="url(#clip0x7fe32fb6cca0)"><image xlink:href="../../D3687D76-D266-4923-BC83-72EBA21C8DC4/assets/C69E2B6ADEF2E7B5632AAABD22613C20.png" width="635.00" height="635.00" transform="matrix(0.50, 0.00, -0.00, -0.50, 1.0, 66.0)"></image></g></g><image xlink:href="../../D3687D76-D266-4923-BC83-72EBA21C8DC4/assets/D12818273978C8DD4C53F690C6F59E33.png" width="166.00" height="42.00" transform="matrix(1.00, 0.00, -0.00, -1.00, 8.0, 47.0)"></image><g><clipPath id="clip0x7fe32fb75c30"><path d="M -9.3 -6.0 L 194.1 -6.0 L 194.1 66.2 L -9.3 66.2 Z M -9.3 -6.0 "></path></clipPath><g clip-path="url(#clip0x7fe32fb75c30)"><text xml:space="preserve" font-family="HelveticaNeue-Light,Helvetica Neue" font-size="36.0" fill="#FEFFFE" transform="matrix(1.00, 0.00, -0.00, -1.00, 13.1, 19.3)">A</text><text xml:space="preserve" font-family="HelveticaNeue-Light,Helvetica Neue" font-size="36.0" fill="#FEFFFE" transform="matrix(1.00, 0.00, -0.00, -1.00, 35.8, 19.3)">p</text><text xml:space="preserve" font-family="HelveticaNeue-Light,Helvetica Neue" font-size="36.0" fill="#FEFFFE" transform="matrix(1.00, 0.00, -0.00, -1.00, 56.4, 19.3)">l</text><text xml:space="preserve" font-family="HelveticaNeue-Light,Helvetica Neue" font-size="36.0" fill="#FEFFFE" transform="matrix(1.00, 0.00, -0.00, -1.00, 63.1, 19.3)">i</text><text xml:space="preserve" font-family="HelveticaNeue-Light,Helvetica Neue" font-size="36.0" fill="#FEFFFE" transform="matrix(1.00, 0.00, -0.00, -1.00, 69.7, 19.3)">c</text><text xml:space="preserve" font-family="HelveticaNeue-Light,Helvetica Neue" font-size="36.0" fill="#FEFFFE" transform="matrix(1.00, 0.00, -0.00, -1.00, 88.4, 19.3)">a</text><text xml:space="preserve" font-family="HelveticaNeue-Light,Helvetica Neue" font-size="36.0" fill="#FEFFFE" transform="matrix(1.00, 0.00, -0.00, -1.00, 107.1, 19.3)">c</text><text xml:space="preserve" font-family="HelveticaNeue-Light,Helvetica Neue" font-size="36.0" fill="#FEFFFE" transform="matrix(1.00, 0.00, -0.00, -1.00, 125.8, 19.3)">i</text><text xml:space="preserve" font-family="HelveticaNeue-Light,Helvetica Neue" font-size="36.0" fill="#FEFFFE" transform="matrix(1.00, 0.00, -0.00, -1.00, 132.5, 19.3)">รณ</text><text xml:space="preserve" font-family="HelveticaNeue-Light,Helvetica Neue" font-size="36.0" fill="#FEFFFE" transform="matrix(1.00, 0.00, -0.00, -1.00, 152.5, 19.3)">n</text></g></g></g></svg>