<?xml version="1.0" encoding="UTF-8" standalone="no"?><svg xmlns="http://www.w3.org/2000/svg" xmlns:xlink="http://www.w3.org/1999/xlink" clip-rule="evenodd" stroke-miterlimit="10" viewBox="0 0 582 103"><desc>SVG generated by Keynote</desc><defs><pattern id="69F392DD-6DF8-4F72-AE27-3BB1B2AFAE82" patternUnits="userSpaceOnUse" width="635" height="635" viewBox="0 0 635 635"><image xlink:href="../../D3687D76-D266-4923-BC83-72EBA21C8DC4/assets/5D7C65CB56709117397F2C8BD51554E8.png" width="635.00" height="635.00"></image></pattern></defs><g transform="matrix(1.00, 0.00, -0.00, -1.00, 0.0, 103.0)"><g><clipPath id="clip0x7fe32f8dacd0"><path d="M 1.0 101.0 L 581.0 101.0 L 581.0 1.0 L 1.0 1.0 Z M 1.2 101.3 "></path></clipPath><g clip-path="url(#clip0x7fe32f8dacd0)"><path d="M 1.0 1.0 L 581.0 1.0 L 581.0 101.0 L 1.0 101.0 Z M 1.0 1.0 " fill="url(#69F392DD-6DF8-4F72-AE27-3BB1B2AFAE82)"></path></g></g><image xlink:href="../../D3687D76-D266-4923-BC83-72EBA21C8DC4/assets/186B35B2BCB5B1CAA6F320E650233F66.png" width="156.00" height="35.00" transform="matrix(1.00, 0.00, -0.00, -1.00, 214.0, 64.0)"></image><g><clipPath id="clip0x7fe32fa26150"><path d="M -9.4 1.3 L 591.4 1.3 L 591.4 101.3 L -9.4 101.3 Z M -9.4 1.3 "></path></clipPath><g clip-path="url(#clip0x7fe32fa26150)"><text xml:space="preserve" font-family="HelveticaNeue-Light,Helvetica Neue" font-size="36.0" fill="#FEFFFE" transform="matrix(1.00, 0.00, -0.00, -1.00, 215.9, 37.0)">H</text><text xml:space="preserve" font-family="HelveticaNeue-Light,Helvetica Neue" font-size="36.0" fill="#FEFFFE" transform="matrix(1.00, 0.00, -0.00, -1.00, 241.3, 37.0)">a</text><text xml:space="preserve" font-family="HelveticaNeue-Light,Helvetica Neue" font-size="36.0" fill="#FEFFFE" transform="matrix(1.00, 0.00, -0.00, -1.00, 260.0, 37.0)">r</text><text xml:space="preserve" font-family="HelveticaNeue-Light,Helvetica Neue" font-size="36.0" fill="#FEFFFE" transform="matrix(1.00, 0.00, -0.00, -1.00, 270.7, 37.0)">d</text><text xml:space="preserve" font-family="HelveticaNeue-Light,Helvetica Neue" font-size="36.0" fill="#FEFFFE" transform="matrix(1.00, 0.00, -0.00, -1.00, 291.3, 37.0)">w</text><text xml:space="preserve" font-family="HelveticaNeue-Light,Helvetica Neue" font-size="36.0" fill="#FEFFFE" transform="matrix(1.00, 0.00, -0.00, -1.00, 318.0, 37.0)">a</text><text xml:space="preserve" font-family="HelveticaNeue-Light,Helvetica Neue" font-size="36.0" fill="#FEFFFE" transform="matrix(1.00, 0.00, -0.00, -1.00, 336.7, 37.0)">r</text><text xml:space="preserve" font-family="HelveticaNeue-Light,Helvetica Neue" font-size="36.0" fill="#FEFFFE" transform="matrix(1.00, 0.00, -0.00, -1.00, 347.4, 37.0)">e</text></g></g></g></svg>