<?xml version="1.0" encoding="UTF-8" standalone="no"?><svg xmlns="http://www.w3.org/2000/svg" xmlns:xlink="http://www.w3.org/1999/xlink" clip-rule="evenodd" stroke-miterlimit="10" viewBox="0 0 582 103"><desc>SVG generated by Keynote</desc><defs><pattern id="18FEBA14-9BC5-4BB2-9AE1-8EB639247E2C" patternUnits="userSpaceOnUse" width="635" height="635" viewBox="0 0 635 635"><image xlink:href="../../D3687D76-D266-4923-BC83-72EBA21C8DC4/assets/191B3A66BCDD4F3D68F90D26310EEBFC.png" width="635.00" height="635.00"></image></pattern></defs><g transform="matrix(1.00, 0.00, -0.00, -1.00, 0.0, 103.0)"><g><clipPath id="clip0x7fe32fb85590"><path d="M 1.0 101.0 L 581.0 101.0 L 581.0 1.0 L 1.0 1.0 Z M 1.1 101.4 "></path></clipPath><g clip-path="url(#clip0x7fe32fb85590)"><path d="M 1.0 1.0 L 581.0 1.0 L 581.0 101.0 L 1.0 101.0 Z M 1.0 1.0 " fill="url(#18FEBA14-9BC5-4BB2-9AE1-8EB639247E2C)"></path></g></g><image xlink:href="../../D3687D76-D266-4923-BC83-72EBA21C8DC4/assets/0F070A04A679E0DC11413D1424379AC1.png" width="97.00" height="36.00" transform="matrix(1.00, 0.00, -0.00, -1.00, 242.0, 65.0)"></image><g><clipPath id="clip0x7fe32fb88760"><path d="M -9.5 1.4 L 591.3 1.4 L 591.3 101.4 L -9.5 101.4 Z M -9.5 1.4 "></path></clipPath><g clip-path="url(#clip0x7fe32fb88760)"><text xml:space="preserve" font-family="HelveticaNeue-Light,Helvetica Neue" font-size="36.0" fill="#FEFFFE" transform="matrix(1.00, 0.00, -0.00, -1.00, 247.2, 37.1)">A</text><text xml:space="preserve" font-family="HelveticaNeue-Light,Helvetica Neue" font-size="36.0" fill="#FEFFFE" transform="matrix(1.00, 0.00, -0.00, -1.00, 269.9, 37.1)">L</text><text xml:space="preserve" font-family="HelveticaNeue-Light,Helvetica Neue" font-size="36.0" fill="#FEFFFE" transform="matrix(1.00, 0.00, -0.00, -1.00, 289.2, 37.1)">S</text><text xml:space="preserve" font-family="HelveticaNeue-Light,Helvetica Neue" font-size="36.0" fill="#FEFFFE" transform="matrix(1.00, 0.00, -0.00, -1.00, 311.9, 37.1)">A</text></g></g></g></svg>