<?xml version="1.0" encoding="UTF-8" standalone="no"?><svg xmlns="http://www.w3.org/2000/svg" xmlns:xlink="http://www.w3.org/1999/xlink" clip-rule="evenodd" stroke-miterlimit="10" viewBox="0 0 191 79"><desc>SVG generated by Keynote</desc><defs><linearGradient id="gradSh1.0" x1="0.0" y1="0.0" x2="100.0" y2="0.0" gradientUnits="userSpaceOnUse" gradientTransform="matrix(0.00, -0.78, -1.90, 0.00, 95.8, 78.0)"><stop offset="0.00000" stop-color="#885CB2"></stop><stop offset="0.00367" stop-color="#885BB2"></stop><stop offset="0.48607" stop-color="#7F4EA7"></stop><stop offset="0.49120" stop-color="#7F4DA7"></stop><stop offset="1.00000" stop-color="#773F9B"></stop></linearGradient></defs><g transform="matrix(1.00, 0.00, -0.00, -1.00, 0.0, 79.0)"><g><clipPath id="clip0x7fe32fab0db0"><path d="M 1.6 16.0 L 2.0 62.5 C 2.0 70.7 8.3 77.0 16.6 77.0 L 174.6 77.0 C 182.9 77.0 190.0 70.7 190.0 62.5 L 190.0 16.0 C 190.0 7.8 182.9 1.0 174.6 1.0 L 16.6 1.0 C 8.3 1.0 1.6 7.8 1.6 16.0 Z M 1.6 16.0 "></path></clipPath><g clip-path="url(#clip0x7fe32fab0db0)"><path d="M 1.6 16.0 L 2.0 62.5 C 2.0 70.7 8.3 77.0 16.6 77.0 L 174.6 77.0 C 182.9 77.0 190.0 70.7 190.0 62.5 L 190.0 16.0 C 190.0 7.8 182.9 1.0 174.6 1.0 L 16.6 1.0 C 8.3 1.0 1.6 7.8 1.6 16.0 Z M 1.6 16.0 " fill="url(#gradSh1.0)"></path></g></g></g></svg>