<?xml version="1.0" encoding="UTF-8" standalone="no"?><svg xmlns="http://www.w3.org/2000/svg" xmlns:xlink="http://www.w3.org/1999/xlink" clip-rule="evenodd" stroke-miterlimit="10" viewBox="0 0 22 22"><desc>SVG generated by Keynote</desc><defs></defs><g transform="matrix(1.00, 0.00, -0.00, -1.00, 0.0, 22.0)"><image xlink:href="../../82E25710-4469-4CAF-B279-0AA2F87D5D03/assets/FED3E8CB51F87E30F5912482C7A9721D.png" width="13.00" height="14.00" transform="matrix(1.00, 0.00, -0.00, -1.00, 4.0, 21.0)"></image><g><clipPath id="clip0x7fe32fbdccf0"><path d="M 4.0 7.5 L 16.7 7.5 L 16.7 20.3 L 4.0 20.3 Z M 4.0 7.5 "></path></clipPath><g clip-path="url(#clip0x7fe32fbdccf0)"><g><g><clipPath id="clip0x7fe32fbde410"><path d="M 4.0 20.3 L 16.7 20.3 L 16.7 7.5 L 4.0 7.5 Z M 4.0 20.3 "></path></clipPath><g clip-path="url(#clip0x7fe32fbde410)"><g><clipPath id="clip0x7fe32fbdeb70"><path d="M 0.0 0.0 L 21.0 0.0 L 21.0 28.0 L 0.0 28.0 Z M 0.0 0.0 "></path></clipPath><g clip-path="url(#clip0x7fe32fbdeb70)"><path d="M 16.7 17.7 C 16.7 18.3 16.4 18.8 15.9 19.4 C 15.4 20.0 14.8 20.3 14.1 20.3 C 13.9 20.3 13.4 20.1 12.8 19.8 C 11.8 19.4 11.0 19.1 10.3 19.1 C 9.6 19.1 8.8 19.4 7.8 19.8 C 7.2 20.1 6.8 20.3 6.5 20.3 C 5.9 20.3 5.3 20.0 4.8 19.5 C 4.3 18.9 4.0 18.3 4.0 17.7 C 4.0 17.4 4.1 17.0 4.4 16.3 C 4.9 15.4 5.1 14.6 5.1 13.9 C 5.1 13.2 4.9 12.4 4.4 11.4 C 4.1 10.8 4.0 10.4 4.0 10.1 C 4.0 9.5 4.3 8.9 4.8 8.4 C 5.3 7.8 5.9 7.5 6.5 7.5 C 6.8 7.5 7.2 7.7 7.8 8.0 C 8.8 8.5 9.6 8.7 10.3 8.7 C 11.0 8.7 11.8 8.5 12.8 8.0 C 13.4 7.7 13.9 7.5 14.1 7.5 C 14.8 7.5 15.4 7.8 15.9 8.4 C 16.4 8.9 16.7 9.5 16.7 10.1 C 16.7 10.4 16.5 10.8 16.2 11.4 C 15.8 12.4 15.5 13.2 15.5 13.9 C 15.5 14.6 15.8 15.4 16.2 16.3 C 16.5 17.0 16.7 17.4 16.7 17.7 " fill="#FFFFFF"></path></g></g></g></g></g></g></g></g></svg>