<?xml version="1.0" encoding="UTF-8" standalone="no"?><svg xmlns="http://www.w3.org/2000/svg" xmlns:xlink="http://www.w3.org/1999/xlink" clip-rule="evenodd" stroke-miterlimit="10" viewBox="0 0 37 10"><desc>SVG generated by Keynote</desc><defs></defs><g transform="matrix(1.00, 0.00, -0.00, -1.00, 0.0, 10.0)"><path d="M 14.8 3.7 C 14.6 3.9 13.8 3.6 13.6 3.8 M 14.8 3.7 C 14.1 2.6 12.8 2.5 11.1 2.3 C 9.1 2.3 11.1 3.3 10.9 3.8 C 8.4 4.2 8.4 3.4 8.7 2.2 C 7.8 3.0 4.9 1.6 5.5 3.1 C 9.6 3.1 2.7 3.5 6.1 4.3 C 6.5 4.5 5.5 4.9 5.1 4.9 C 6.2 5.6 4.3 6.3 6.1 6.7 C 6.3 7.6 6.0 7.2 7.2 8.0 C 7.7 8.1 7.4 7.7 7.4 7.5 C 7.6 6.4 8.8 8.1 9.7 7.5 C 10.6 8.9 11.4 7.2 10.7 6.6 C 11.5 6.8 12.5 8.3 13.4 7.2 C 13.9 7.9 16.2 7.5 14.8 6.6 C 13.8 6.0 14.9 5.6 15.1 5.2 C 14.7 4.9 13.3 5.4 13.1 5.1 C 13.5 4.9 15.3 4.4 13.4 4.4 C 14.0 3.9 13.1 3.6 14.8 3.7 C 14.8 3.7 14.8 3.7 14.8 3.7 Z M 8.1 2.9 C 8.0 2.5 8.7 2.9 8.1 2.9 C 8.1 2.9 8.1 2.9 8.1 2.9 Z M 12.7 8.0 C 12.7 7.6 13.3 8.0 12.7 8.0 C 12.7 8.0 12.7 8.0 12.7 8.0 Z M 7.7 7.6 C 7.7 7.2 8.4 7.6 7.7 7.6 C 7.7 7.6 7.7 7.6 7.7 7.6 Z M 9.8 3.1 C 10.9 3.4 8.9 3.7 8.8 3.3 C 9.0 3.3 9.6 2.8 9.8 3.1 C 9.8 3.1 9.8 3.1 9.8 3.1 Z M 10.0 5.3 C 10.1 5.2 10.5 5.1 10.4 5.5 C 10.2 5.6 9.9 5.4 10.0 5.3 C 10.0 5.3 10.0 5.3 10.0 5.3 Z M 4.7 3.8 C 4.8 3.6 5.2 3.6 5.1 3.9 C 4.9 4.0 4.6 3.9 4.7 3.8 C 4.7 3.8 4.7 3.8 4.7 3.8 Z M 11.0 4.1 C 11.3 4.2 11.4 4.5 11.1 4.6 C 10.9 4.4 10.2 4.3 11.0 4.1 C 11.0 4.1 11.0 4.1 11.0 4.1 Z M 12.7 2.8 C 13.6 3.0 11.8 3.6 11.8 3.4 C 11.5 3.2 12.2 2.5 12.7 2.8 C 12.7 2.8 12.7 2.8 12.7 2.8 Z M 11.6 4.6 C 12.3 4.8 11.2 4.9 11.6 4.6 C 11.6 4.6 11.6 4.6 11.6 4.6 Z M 5.4 6.6 C 6.1 6.8 5.1 6.8 5.4 6.6 C 5.4 6.6 5.4 6.6 5.4 6.6 Z M 9.3 7.7 C 10.0 7.9 9.0 8.0 9.3 7.7 C 9.3 7.7 9.3 7.7 9.3 7.7 Z M 7.8 3.9 C 6.6 3.8 7.7 2.9 7.8 3.9 C 7.8 3.9 7.8 3.9 7.8 3.9 Z M 14.8 2.8 C 13.5 2.7 14.6 1.8 14.8 2.8 C 14.8 2.8 14.8 2.8 14.8 2.8 Z M 29.7 3.1 C 30.9 2.9 26.2 1.7 28.0 3.1 C 28.5 4.4 25.4 4.3 26.2 3.1 C 25.3 3.0 25.2 2.9 24.7 3.5 C 24.6 2.6 22.4 2.1 21.6 2.6 C 21.2 3.4 23.1 2.7 21.9 3.5 C 19.1 3.8 22.0 4.4 21.0 5.4 C 20.9 5.4 20.8 4.9 20.6 5.2 C 20.5 6.1 22.1 6.8 21.4 7.5 C 21.8 7.4 23.7 8.4 22.9 7.6 C 22.6 6.7 25.1 8.7 24.9 7.2 C 25.5 7.9 26.2 6.9 26.8 7.7 C 27.3 7.9 27.3 7.1 27.2 7.0 C 27.2 6.3 27.8 8.5 28.6 7.3 C 28.7 7.6 30.9 7.5 29.2 7.0 C 29.7 7.1 32.2 7.4 30.9 6.1 C 29.1 5.5 32.7 4.7 30.6 4.6 C 29.1 4.5 28.7 4.8 29.9 4.1 C 30.3 4.1 32.1 4.0 30.5 3.4 C 30.2 3.6 29.5 3.5 29.7 3.1 C 29.7 3.1 29.7 3.1 29.7 3.1 Z M 30.0 5.0 C 29.1 5.1 29.9 4.5 30.0 5.0 C 30.0 5.0 30.0 5.0 30.0 5.0 Z M 26.7 8.0 C 25.8 8.1 26.6 7.5 26.7 8.0 C 26.7 8.0 26.7 8.0 26.7 8.0 Z M 26.8 2.8 C 26.4 3.2 26.2 1.8 26.8 2.8 C 26.8 2.8 26.8 2.8 26.8 2.8 Z M 28.2 6.9 C 28.2 6.9 28.4 6.8 28.5 6.7 C 28.5 6.8 28.3 6.9 28.2 6.9 C 28.2 6.9 28.2 6.9 28.2 6.9 Z M 25.3 2.8 C 23.9 3.4 25.0 1.7 25.3 2.8 C 25.3 2.8 25.3 2.8 25.3 2.8 Z M 22.5 4.1 C 22.4 5.4 21.1 3.8 22.5 4.1 C 22.5 4.1 22.5 4.1 22.5 4.1 Z M 24.4 7.1 C 24.7 6.8 24.7 7.3 24.4 7.1 C 24.4 7.1 24.4 7.1 24.4 7.1 Z M 30.4 7.3 C 30.6 7.0 30.6 7.5 30.4 7.3 C 30.4 7.3 30.4 7.3 30.4 7.3 Z M 22.7 7.0 C 22.8 6.5 23.2 7.2 22.7 7.0 C 22.7 7.0 22.7 7.0 22.7 7.0 Z M 26.6 3.3 C 27.8 2.2 28.1 4.9 26.6 3.3 C 26.6 3.3 26.6 3.3 26.6 3.3 Z M 28.8 3.2 C 29.7 3.0 28.7 3.9 28.3 3.7 C 28.3 3.6 28.7 3.3 28.8 3.2 C 28.8 3.2 28.8 3.2 28.8 3.2 Z M 25.3 3.4 C 26.1 2.9 26.0 3.7 25.3 3.4 C 25.3 3.4 25.3 3.4 25.3 3.4 Z M 27.4 2.8 C 27.8 3.0 27.1 3.0 27.4 2.8 C 27.4 2.8 27.4 2.8 27.4 2.8 Z M 23.6 2.3 C 24.0 2.4 23.2 2.4 23.6 2.3 C 23.6 2.3 23.6 2.3 23.6 2.3 Z M 29.9 2.6 C 30.3 2.8 29.5 2.8 29.9 2.6 C 29.9 2.6 29.9 2.6 29.9 2.6 Z M 23.9 3.0 C 23.8 3.5 25.0 4.6 22.8 3.7 C 22.4 3.3 23.4 2.6 23.9 3.0 C 23.9 3.0 23.9 3.0 23.9 3.0 Z M 15.1 3.7 C 14.2 2.2 14.4 4.9 14.3 5.4 C 14.2 6.1 14.3 6.6 14.5 7.1 C 14.7 8.8 14.8 5.3 15.0 7.0 C 15.2 9.3 15.3 5.0 15.4 7.4 C 15.3 8.0 15.7 7.5 15.7 7.4 C 15.9 8.5 16.1 6.5 16.1 6.3 C 16.3 6.6 16.3 8.7 16.7 7.1 C 17.0 6.6 17.1 8.7 17.0 7.2 C 17.2 8.9 17.2 6.8 17.4 7.3 C 17.5 8.2 17.4 5.9 17.7 7.6 C 17.8 6.3 17.5 8.6 18.3 7.6 C 17.9 7.4 18.6 6.5 18.5 7.4 C 18.2 8.4 18.8 7.0 19.2 7.6 C 19.3 7.1 19.7 5.9 19.6 7.2 C 19.9 8.8 19.9 6.3 20.1 7.6 C 20.2 8.1 20.3 6.9 20.3 7.0 C 20.5 8.0 20.6 7.4 21.0 7.6 C 21.9 8.1 21.1 5.1 21.5 4.8 C 21.6 4.3 21.0 1.1 21.2 3.5 C 21.2 2.9 20.4 5.4 20.8 2.7 C 20.5 3.8 20.9 1.6 20.3 2.9 C 21.1 4.8 19.3 3.7 20.1 2.7 C 20.0 2.2 19.7 2.3 19.9 2.8 C 20.0 4.4 19.3 2.0 19.7 4.0 C 19.2 3.5 19.3 5.3 19.2 4.0 C 19.0 1.8 19.2 4.6 18.9 4.0 C 18.3 3.9 18.8 1.4 18.4 3.1 C 17.9 2.0 18.3 4.1 18.1 4.3 C 18.1 5.9 17.5 3.1 18.0 2.9 C 17.7 3.8 17.9 2.2 17.7 3.2 C 17.9 4.6 17.3 1.7 17.4 2.8 C 17.2 3.2 17.3 4.0 17.2 4.1 C 16.9 4.1 17.0 2.7 16.9 3.7 C 16.8 4.3 16.7 2.4 16.6 2.9 C 17.0 3.0 16.3 4.4 16.3 3.6 C 16.5 3.5 16.2 1.8 16.0 2.9 C 16.2 6.0 15.7 2.1 15.5 3.2 C 15.7 4.9 14.8 3.4 15.1 2.6 C 15.1 2.7 15.1 3.7 15.1 3.7 M 16.5 3.2 C 16.8 3.3 16.2 3.5 16.5 3.2 M 16.5 2.7 C 16.6 3.3 16.2 2.3 16.5 2.5 C 16.5 2.5 16.5 2.7 16.5 2.7 M 17.7 2.6 C 17.7 3.1 17.6 2.4 17.7 2.6 M 18.0 3.7 C 18.1 4.2 17.7 3.8 18.0 3.7 M 20.7 3.4 C 20.4 5.9 20.4 1.9 20.7 3.4 M 18.9 2.8 C 18.5 3.2 19.0 1.8 18.9 2.8 M 18.8 3.5 C 18.6 3.9 18.7 2.9 18.8 3.5 M 20.1 3.4 C 20.2 3.4 20.2 3.4 20.1 3.4 C 20.1 3.4 20.1 3.4 20.1 3.4 Z M 21.0 3.4 C 21.0 3.4 21.0 3.4 21.0 3.4 C 21.0 3.4 21.0 3.4 21.0 3.4 Z M 19.4 3.6 C 19.1 3.0 19.8 3.4 19.4 3.6 C 19.4 3.6 19.4 3.6 19.4 3.6 Z M 20.6 7.3 C 20.6 7.4 20.6 7.4 20.6 7.3 C 20.6 7.3 20.6 7.3 20.6 7.3 Z M 16.3 4.3 C 16.3 4.4 16.3 4.4 16.3 4.3 C 16.3 4.3 16.3 4.3 16.3 4.3 Z M 15.4 3.4 C 15.4 3.7 15.2 3.1 15.4 3.4 C 15.4 3.4 15.4 3.4 15.4 3.4 Z M 14.6 6.3 C 14.6 6.3 14.6 6.3 14.6 6.3 C 14.6 6.3 14.6 6.3 14.6 6.3 Z M 16.0 5.7 C 16.0 5.7 16.0 5.7 16.0 5.7 C 16.0 5.7 16.0 5.7 16.0 5.7 Z M 16.1 3.8 C 15.9 2.4 16.4 4.2 16.1 3.8 C 16.1 3.8 16.1 3.8 16.1 3.8 Z M 19.1 7.2 C 19.1 6.6 19.3 7.4 19.1 7.2 C 19.1 7.2 19.1 7.2 19.1 7.2 Z M 18.0 4.3 C 18.0 4.0 18.1 4.4 18.0 4.3 C 18.0 4.3 18.0 4.3 18.0 4.3 Z M 17.5 2.4 C 17.5 2.0 17.6 2.5 17.5 2.4 C 17.5 2.4 17.5 2.4 17.5 2.4 Z M 15.4 3.0 C 15.4 2.9 15.4 2.9 15.4 3.0 C 15.4 3.0 15.4 3.0 15.4 3.0 Z M 15.7 4.0 C 15.5 2.7 16.0 4.8 15.7 4.0 C 15.7 4.0 15.7 4.0 15.7 4.0 Z M 15.3 4.4 C 15.4 4.9 15.0 4.2 15.3 4.4 M 15.5 6.4 C 15.8 5.9 15.3 8.8 15.5 6.4 C 15.5 6.4 15.5 6.4 15.5 6.4 Z M 16.9 7.0 C 17.0 7.0 17.0 7.0 16.9 7.0 C 16.9 7.0 16.9 7.0 16.9 7.0 Z M 16.8 3.1 C 17.0 3.2 16.6 3.4 16.8 3.1 C 16.8 3.1 16.8 3.1 16.8 3.1 Z M 14.7 2.8 C 14.9 2.9 14.5 3.1 14.7 2.8 C 14.7 2.8 14.7 2.8 14.7 2.8 Z M 17.8 5.7 C 18.2 5.5 17.5 6.4 17.8 5.7 C 17.8 5.7 17.8 5.7 17.8 5.7 Z M 19.2 4.1 C 19.2 4.2 19.2 4.2 19.2 4.1 C 19.2 4.1 19.2 4.1 19.2 4.1 Z M 19.5 3.6 C 19.5 3.6 19.5 3.6 19.5 3.6 C 19.5 3.6 19.5 3.6 19.5 3.6 Z M 20.6 5.0 C 20.7 5.0 20.7 5.0 20.6 5.0 C 20.6 5.0 20.6 5.0 20.6 5.0 Z M 19.8 3.0 C 19.8 3.0 19.8 3.0 19.8 3.0 C 19.8 3.0 19.8 3.0 19.8 3.0 Z M 20.5 3.3 C 20.6 3.4 20.6 3.4 20.5 3.3 C 20.5 3.3 20.5 3.3 20.5 3.3 Z M 20.4 2.2 C 20.4 2.2 20.4 2.2 20.4 2.2 C 20.4 2.2 20.4 2.2 20.4 2.2 Z M 18.7 8.0 C 18.7 8.0 18.7 8.0 18.7 8.0 C 18.7 8.0 18.7 8.0 18.7 8.0 Z M 15.8 2.5 C 15.8 2.6 15.8 2.6 15.8 2.5 C 15.8 2.5 15.8 2.5 15.8 2.5 Z M 20.5 3.8 C 20.5 3.9 20.5 3.9 20.5 3.8 C 20.5 3.8 20.5 3.8 20.5 3.8 Z M 18.5 4.9 C 18.6 6.0 18.4 3.4 18.6 4.8 C 18.6 4.9 18.5 4.7 18.5 4.9 M 18.8 6.8 C 18.8 6.8 18.8 6.8 18.8 6.8 C 18.8 6.8 18.8 6.8 18.8 6.8 Z M 17.9 7.4 C 17.9 7.5 17.9 7.5 17.9 7.4 C 17.9 7.4 17.9 7.4 17.9 7.4 Z M 19.6 2.7 C 19.6 2.1 19.8 3.2 19.6 2.8 M 20.6 6.9 C 20.6 6.3 20.9 7.4 20.6 7.0 M 14.4 3.2 C 14.4 3.7 14.2 3.0 14.4 3.2 M 17.7 8.0 C 17.7 8.5 17.6 7.8 17.7 8.0 M 18.1 6.6 C 18.1 6.0 18.4 7.1 18.1 6.6 M 20.0 6.9 C 20.1 6.9 20.1 6.9 20.0 6.9 C 20.0 6.9 20.0 6.9 20.0 6.9 Z M 17.2 3.2 C 17.2 3.3 17.2 3.3 17.2 3.2 C 17.2 3.2 17.2 3.2 17.2 3.2 Z M 18.2 4.6 C 18.1 3.7 18.4 5.1 18.2 4.6 M 16.9 4.7 C 16.6 3.7 17.2 5.1 16.9 4.7 M 21.1 7.2 C 20.9 5.9 21.3 7.9 21.1 7.2 M 19.9 4.0 C 19.7 2.7 20.1 4.7 19.9 4.0 M 17.4 3.8 C 17.4 3.1 17.6 4.2 17.4 3.8 M 14.9 3.1 C 14.7 3.0 15.2 2.6 14.9 3.1 M 19.5 6.9 C 19.5 7.0 19.5 7.0 19.5 6.9 C 19.5 6.9 19.5 6.9 19.5 6.9 Z M 15.7 8.1 C 15.7 8.1 15.7 8.1 15.7 8.1 C 15.7 8.1 15.7 8.1 15.7 8.1 Z M 21.4 3.0 C 21.4 3.0 21.4 3.0 21.4 3.0 C 21.4 3.0 21.4 3.0 21.4 3.0 Z M 19.8 4.6 C 19.8 4.6 19.8 4.6 19.8 4.6 C 19.8 4.6 19.8 4.6 19.8 4.6 Z M 21.0 2.8 C 21.0 2.9 21.0 2.9 21.0 2.8 C 21.0 2.8 21.0 2.8 21.0 2.8 Z M 19.0 5.6 C 19.1 5.6 19.1 5.6 19.0 5.6 C 19.0 5.6 19.0 5.6 19.0 5.6 Z M 18.9 2.3 C 18.9 2.3 18.9 2.3 18.9 2.3 C 18.9 2.3 18.9 2.3 18.9 2.3 Z M 18.1 3.7 C 18.1 3.7 18.1 3.7 18.1 3.7 C 18.1 3.7 18.1 3.7 18.1 3.7 Z M 19.3 2.5 C 19.8 2.3 19.0 3.6 19.3 2.5 C 19.3 2.5 19.3 2.5 19.3 2.5 Z M 18.4 5.8 C 18.4 5.9 18.4 5.9 18.4 5.8 C 18.4 5.8 18.4 5.8 18.4 5.8 Z M 18.4 3.5 C 18.7 2.5 18.5 5.1 18.4 3.5 M 17.0 2.7 C 17.1 2.2 17.1 3.5 17.0 2.7 M 16.5 7.0 C 16.5 7.1 16.5 7.1 16.5 7.0 C 16.5 7.0 16.5 7.0 16.5 7.0 Z M 16.6 6.7 C 16.6 6.7 16.6 6.7 16.6 6.7 C 16.6 6.7 16.6 6.7 16.6 6.7 Z M 16.7 2.5 C 16.7 2.5 16.7 2.5 16.7 2.5 C 16.7 2.5 16.7 2.5 16.7 2.5 Z M 16.7 7.9 C 16.7 8.0 16.7 8.0 16.7 7.9 C 16.7 7.9 16.7 7.9 16.7 7.9 Z M 18.7 2.4 C 18.7 2.4 18.7 2.4 18.7 2.4 C 18.7 2.4 18.7 2.4 18.7 2.4 Z M 21.2 2.3 C 21.2 2.3 21.2 2.3 21.2 2.3 C 21.2 2.3 21.2 2.3 21.2 2.3 Z M 15.0 6.6 C 15.0 6.6 15.0 6.6 15.0 6.6 C 15.0 6.6 15.0 6.6 15.0 6.6 Z M 19.0 3.7 C 19.0 3.7 19.0 3.7 19.0 3.7 C 19.0 3.7 19.0 3.7 19.0 3.7 Z M 16.1 6.9 C 16.1 6.9 16.1 6.9 16.1 6.9 C 16.1 6.9 16.1 6.9 16.1 6.9 Z M 18.8 3.4 C 18.8 3.4 18.8 3.4 18.8 3.4 C 18.8 3.4 18.8 3.4 18.8 3.4 Z M 19.4 7.2 C 19.4 7.2 19.4 7.2 19.4 7.2 C 19.4 7.2 19.4 7.2 19.4 7.2 Z M 19.9 8.0 C 19.9 8.0 19.9 8.0 19.9 8.0 C 19.9 8.0 19.9 8.0 19.9 8.0 Z M 19.4 4.9 C 19.4 4.9 19.4 4.9 19.4 4.9 C 19.4 4.9 19.4 4.9 19.4 4.9 Z M 16.0 5.4 C 15.0 4.3 16.7 4.9 16.0 5.4 M 19.5 5.2 C 18.8 4.9 20.1 3.9 19.5 5.2 C 19.6 4.9 19.5 5.1 19.5 5.2 " fill="#ABA5A4" fill-opacity="0.72"></path></g></svg>