<?xml version="1.0" encoding="UTF-8" standalone="no"?><svg xmlns="http://www.w3.org/2000/svg" xmlns:xlink="http://www.w3.org/1999/xlink" clip-rule="evenodd" stroke-miterlimit="10" viewBox="0 0 147 38"><desc>SVG generated by Keynote</desc><defs></defs><g transform="matrix(1.00, 0.00, -0.00, -1.00, 0.0, 38.0)"><image xlink:href="../../82E25710-4469-4CAF-B279-0AA2F87D5D03/assets/FED3E8CB51F87E30F5912482C7A9721D.png" width="13.00" height="14.00" transform="matrix(1.00, 0.00, -0.00, -1.00, 4.0, 28.0)"></image><g><clipPath id="clip0x7fe32fbcfa10"><path d="M 4.0 14.5 L 16.7 14.5 L 16.7 27.3 L 4.0 27.3 Z M 4.0 14.5 "></path></clipPath><g clip-path="url(#clip0x7fe32fbcfa10)"><g><g><clipPath id="clip0x7fe32fbd0c80"><path d="M 4.0 27.3 L 16.7 27.3 L 16.7 14.5 L 4.0 14.5 Z M 4.0 27.3 "></path></clipPath><g clip-path="url(#clip0x7fe32fbd0c80)"><g><clipPath id="clip0x7fe32fbd13e0"><path d="M 0.0 7.0 L 21.0 7.0 L 21.0 35.0 L 0.0 35.0 Z M 0.0 7.0 "></path></clipPath><g clip-path="url(#clip0x7fe32fbd13e0)"><path d="M 16.7 24.7 C 16.7 25.3 16.4 25.8 15.9 26.4 C 15.4 27.0 14.8 27.3 14.1 27.3 C 13.9 27.3 13.4 27.1 12.8 26.8 C 11.8 26.4 11.0 26.1 10.3 26.1 C 9.6 26.1 8.8 26.4 7.8 26.8 C 7.2 27.1 6.8 27.3 6.5 27.3 C 5.9 27.3 5.3 27.0 4.8 26.5 C 4.3 25.9 4.0 25.3 4.0 24.7 C 4.0 24.4 4.1 24.0 4.4 23.3 C 4.9 22.4 5.1 21.6 5.1 20.9 C 5.1 20.2 4.9 19.4 4.4 18.4 C 4.1 17.8 4.0 17.4 4.0 17.1 C 4.0 16.5 4.3 15.9 4.8 15.4 C 5.3 14.8 5.9 14.5 6.5 14.5 C 6.8 14.5 7.2 14.7 7.8 15.0 C 8.8 15.5 9.6 15.7 10.3 15.7 C 11.0 15.7 11.8 15.5 12.8 15.0 C 13.4 14.7 13.9 14.5 14.1 14.5 C 14.8 14.5 15.4 14.8 15.9 15.4 C 16.4 15.9 16.7 16.5 16.7 17.1 C 16.7 17.4 16.5 17.8 16.2 18.4 C 15.8 19.4 15.5 20.2 15.5 20.9 C 15.5 21.6 15.8 22.4 16.2 23.3 C 16.5 24.0 16.7 24.4 16.7 24.7 " fill="#FFFFFF"></path></g></g></g></g></g></g></g><image xlink:href="BA8DDDC5B4044F77E6FB04CB48C53652.png" width="108.00" height="36.00" transform="matrix(1.00, 0.00, -0.00, -1.00, 37.0, 37.0)"></image><text xml:space="preserve" font-family="HelveticaNeue-Light,Helvetica Neue" font-size="36.0" fill="#FEFFFE" transform="matrix(1.00, 0.00, -0.00, -1.00, 39.0, 9.3)">U</text><text xml:space="preserve" font-family="HelveticaNeue-Light,Helvetica Neue" font-size="36.0" fill="#FEFFFE" transform="matrix(1.00, 0.00, -0.00, -1.00, 63.7, 9.3)">t</text><text xml:space="preserve" font-family="HelveticaNeue-Light,Helvetica Neue" font-size="36.0" fill="#FEFFFE" transform="matrix(1.00, 0.00, -0.00, -1.00, 74.3, 9.3)">i</text><text xml:space="preserve" font-family="HelveticaNeue-Light,Helvetica Neue" font-size="36.0" fill="#FEFFFE" transform="matrix(1.00, 0.00, -0.00, -1.00, 81.0, 9.3)">l</text><text xml:space="preserve" font-family="HelveticaNeue-Light,Helvetica Neue" font-size="36.0" fill="#FEFFFE" transform="matrix(1.00, 0.00, -0.00, -1.00, 87.6, 9.3)">i</text><text xml:space="preserve" font-family="HelveticaNeue-Light,Helvetica Neue" font-size="36.0" fill="#FEFFFE" transform="matrix(1.00, 0.00, -0.00, -1.00, 94.3, 9.3)">z</text><text xml:space="preserve" font-family="HelveticaNeue-Light,Helvetica Neue" font-size="36.0" fill="#FEFFFE" transform="matrix(1.00, 0.00, -0.00, -1.00, 111.0, 9.3)">a</text><text xml:space="preserve" font-family="HelveticaNeue-Light,Helvetica Neue" font-size="36.0" fill="#FEFFFE" transform="matrix(1.00, 0.00, -0.00, -1.00, 129.6, 9.3)">r</text></g></svg>